<svg xmlns="http://www.w3.org/2000/svg" viewBox="0 0 300 300" width="300" height="300">
  <rect width="100%" height="100%" fill="#ffffff"/>

  <text x="20" y="18" font-family="sans-serif" font-size="14" font-weight="bold" fill="#334155">Before: a 3&#215;3 kernel</text>

  <!-- 7x7 grid of cells, all 0 except a 2x2 obstacle block -->
  <g font-family="sans-serif" font-size="15" text-anchor="middle">
    <rect x="20" y="30" width="36" height="36" fill="#ffffff" stroke="#94a3b8"/><text x="38" y="53" fill="#94a3b8">0</text>
    <rect x="56" y="30" width="36" height="36" fill="#ffffff" stroke="#94a3b8"/><text x="74" y="53" fill="#94a3b8">0</text>
    <rect x="92" y="30" width="36" height="36" fill="#ffffff" stroke="#94a3b8"/><text x="110" y="53" fill="#94a3b8">0</text>
    <rect x="128" y="30" width="36" height="36" fill="#ffffff" stroke="#94a3b8"/><text x="146" y="53" fill="#94a3b8">0</text>
    <rect x="164" y="30" width="36" height="36" fill="#ffffff" stroke="#94a3b8"/><text x="182" y="53" fill="#94a3b8">0</text>
    <rect x="200" y="30" width="36" height="36" fill="#ffffff" stroke="#94a3b8"/><text x="218" y="53" fill="#94a3b8">0</text>
    <rect x="236" y="30" width="36" height="36" fill="#ffffff" stroke="#94a3b8"/><text x="254" y="53" fill="#94a3b8">0</text>

    <rect x="20" y="66" width="36" height="36" fill="#ffffff" stroke="#94a3b8"/><text x="38" y="89" fill="#94a3b8">0</text>
    <rect x="56" y="66" width="36" height="36" fill="#ffffff" stroke="#94a3b8"/><text x="74" y="89" fill="#94a3b8">0</text>
    <rect x="92" y="66" width="36" height="36" fill="#ffffff" stroke="#94a3b8"/><text x="110" y="89" fill="#94a3b8">0</text>
    <rect x="128" y="66" width="36" height="36" fill="#ffffff" stroke="#94a3b8"/><text x="146" y="89" fill="#94a3b8">0</text>
    <rect x="164" y="66" width="36" height="36" fill="#ffffff" stroke="#94a3b8"/><text x="182" y="89" fill="#94a3b8">0</text>
    <rect x="200" y="66" width="36" height="36" fill="#ffffff" stroke="#94a3b8"/><text x="218" y="89" fill="#94a3b8">0</text>
    <rect x="236" y="66" width="36" height="36" fill="#ffffff" stroke="#94a3b8"/><text x="254" y="89" fill="#94a3b8">0</text>

    <rect x="20" y="102" width="36" height="36" fill="#ffffff" stroke="#94a3b8"/><text x="38" y="125" fill="#94a3b8">0</text>
    <rect x="56" y="102" width="36" height="36" fill="#ffffff" stroke="#94a3b8"/><text x="74" y="125" fill="#94a3b8">0</text>
    <rect x="92" y="102" width="36" height="36" fill="#ffffff" stroke="#94a3b8"/><text x="110" y="125" fill="#94a3b8">0</text>
    <rect x="128" y="102" width="36" height="36" fill="#334155"/><text x="146" y="125" font-weight="bold" fill="#ffffff">1</text>
    <rect x="164" y="102" width="36" height="36" fill="#334155"/><text x="182" y="125" font-weight="bold" fill="#ffffff">1</text>
    <rect x="200" y="102" width="36" height="36" fill="#ffffff" stroke="#94a3b8"/><text x="218" y="125" fill="#94a3b8">0</text>
    <rect x="236" y="102" width="36" height="36" fill="#ffffff" stroke="#94a3b8"/><text x="254" y="125" fill="#94a3b8">0</text>

    <rect x="20" y="138" width="36" height="36" fill="#ffffff" stroke="#94a3b8"/><text x="38" y="161" fill="#94a3b8">0</text>
    <rect x="56" y="138" width="36" height="36" fill="#ffffff" stroke="#94a3b8"/><text x="74" y="161" fill="#94a3b8">0</text>
    <rect x="92" y="138" width="36" height="36" fill="#ffffff" stroke="#94a3b8"/><text x="110" y="161" fill="#94a3b8">0</text>
    <rect x="128" y="138" width="36" height="36" fill="#334155"/><text x="146" y="161" font-weight="bold" fill="#ffffff">1</text>
    <rect x="164" y="138" width="36" height="36" fill="#334155"/><text x="182" y="161" font-weight="bold" fill="#ffffff">1</text>
    <rect x="200" y="138" width="36" height="36" fill="#ffffff" stroke="#94a3b8"/><text x="218" y="161" fill="#94a3b8">0</text>
    <rect x="236" y="138" width="36" height="36" fill="#ffffff" stroke="#94a3b8"/><text x="254" y="161" fill="#94a3b8">0</text>

    <rect x="20" y="174" width="36" height="36" fill="#ffffff" stroke="#94a3b8"/><text x="38" y="197" fill="#94a3b8">0</text>
    <rect x="56" y="174" width="36" height="36" fill="#ffffff" stroke="#94a3b8"/><text x="74" y="197" fill="#94a3b8">0</text>
    <rect x="92" y="174" width="36" height="36" fill="#ffffff" stroke="#94a3b8"/><text x="110" y="197" fill="#94a3b8">0</text>
    <rect x="128" y="174" width="36" height="36" fill="#ffffff" stroke="#94a3b8"/><text x="146" y="197" fill="#94a3b8">0</text>
    <rect x="164" y="174" width="36" height="36" fill="#ffffff" stroke="#94a3b8"/><text x="182" y="197" fill="#94a3b8">0</text>
    <rect x="200" y="174" width="36" height="36" fill="#ffffff" stroke="#94a3b8"/><text x="218" y="197" fill="#94a3b8">0</text>
    <rect x="236" y="174" width="36" height="36" fill="#ffffff" stroke="#94a3b8"/><text x="254" y="197" fill="#94a3b8">0</text>

    <rect x="20" y="210" width="36" height="36" fill="#ffffff" stroke="#94a3b8"/><text x="38" y="233" fill="#94a3b8">0</text>
    <rect x="56" y="210" width="36" height="36" fill="#ffffff" stroke="#94a3b8"/><text x="74" y="233" fill="#94a3b8">0</text>
    <rect x="92" y="210" width="36" height="36" fill="#ffffff" stroke="#94a3b8"/><text x="110" y="233" fill="#94a3b8">0</text>
    <rect x="128" y="210" width="36" height="36" fill="#ffffff" stroke="#94a3b8"/><text x="146" y="233" fill="#94a3b8">0</text>
    <rect x="164" y="210" width="36" height="36" fill="#ffffff" stroke="#94a3b8"/><text x="182" y="233" fill="#94a3b8">0</text>
    <rect x="200" y="210" width="36" height="36" fill="#ffffff" stroke="#94a3b8"/><text x="218" y="233" fill="#94a3b8">0</text>
    <rect x="236" y="210" width="36" height="36" fill="#ffffff" stroke="#94a3b8"/><text x="254" y="233" fill="#94a3b8">0</text>

    <rect x="20" y="246" width="36" height="36" fill="#ffffff" stroke="#94a3b8"/><text x="38" y="269" fill="#94a3b8">0</text>
    <rect x="56" y="246" width="36" height="36" fill="#ffffff" stroke="#94a3b8"/><text x="74" y="269" fill="#94a3b8">0</text>
    <rect x="92" y="246" width="36" height="36" fill="#ffffff" stroke="#94a3b8"/><text x="110" y="269" fill="#94a3b8">0</text>
    <rect x="128" y="246" width="36" height="36" fill="#ffffff" stroke="#94a3b8"/><text x="146" y="269" fill="#94a3b8">0</text>
    <rect x="164" y="246" width="36" height="36" fill="#ffffff" stroke="#94a3b8"/><text x="182" y="269" fill="#94a3b8">0</text>
    <rect x="200" y="246" width="36" height="36" fill="#ffffff" stroke="#94a3b8"/><text x="218" y="269" fill="#94a3b8">0</text>
    <rect x="236" y="246" width="36" height="36" fill="#ffffff" stroke="#94a3b8"/><text x="254" y="269" fill="#94a3b8">0</text>
  </g>

  <!-- The kernel steps across every row of the grid, right then down, then repeats -->
  <rect x="20" y="30" width="108" height="108" fill="none" stroke="#dc2626" stroke-width="3">
    <animate attributeName="x" dur="12.5s" repeatCount="indefinite" calcMode="discrete"
      keyTimes="0;0.0417;0.0833;0.125;0.1667;0.2083;0.25;0.2917;0.3333;0.375;0.4167;0.4583;0.5;0.5417;0.5833;0.625;0.6667;0.7083;0.75;0.7917;0.8333;0.875;0.9167;0.9583;1"
      values="20;56;92;128;164;20;56;92;128;164;20;56;92;128;164;20;56;92;128;164;20;56;92;128;164"/>
    <animate attributeName="y" dur="12.5s" repeatCount="indefinite" calcMode="discrete"
      keyTimes="0;0.0417;0.0833;0.125;0.1667;0.2083;0.25;0.2917;0.3333;0.375;0.4167;0.4583;0.5;0.5417;0.5833;0.625;0.6667;0.7083;0.75;0.7917;0.8333;0.875;0.9167;0.9583;1"
      values="30;30;30;30;30;66;66;66;66;66;102;102;102;102;102;138;138;138;138;138;174;174;174;174;174"/>
  </rect>
</svg>
